<?xml version="1.0" standalone="no"?>
<!DOCTYPE svg PUBLIC "-//W3C//DTD SVG 20010904//EN"
 "http://www.w3.org/TR/2001/REC-SVG-20010904/DTD/svg10.dtd">
<svg version="1.0" xmlns="http://www.w3.org/2000/svg"
 width="622.000000pt" height="570.000000pt" viewBox="0 0 622.000000 570.000000"
 preserveAspectRatio="xMidYMid meet">

<g transform="translate(0.000000,570.000000) scale(0.100000,-0.100000)"
fill="#ffffff" stroke="none">
<path d="M3250 5690 c-323 -25 -644 -105 -934 -235 l-60 -26 230 -230 c253
-254 226 -237 334 -204 165 51 449 95 610 95 284 0 593 -64 861 -178 106 -45
313 -154 323 -170 2 -4 -39 -8 -92 -9 -222 -3 -411 -97 -553 -273 -105 -132
-153 -271 -153 -445 0 -60 5 -127 11 -147 13 -44 10 -45 -50 -19 -125 54 -382
71 -537 37 -339 -75 -600 -305 -723 -636 -37 -101 -52 -194 -51 -330 1 -278
96 -502 296 -696 210 -205 482 -301 779 -274 462 42 840 423 878 884 12 154
-13 335 -65 470 -6 16 -4 18 12 11 33 -14 242 -18 307 -5 215 41 407 188 502
385 55 112 67 161 74 300 l6 110 40 -65 c200 -327 306 -715 307 -1115 0 -576
-223 -1117 -632 -1525 -578 -579 -1429 -781 -2205 -524 -57 18 -148 54 -202
78 l-98 45 -5 663 -5 663 -24 52 c-29 65 -91 124 -157 149 -45 17 -78 19 -374
19 -349 0 -365 -2 -443 -53 -21 -14 -52 -46 -69 -71 -29 -41 -32 -43 -39 -23
-18 49 -49 245 -61 383 -19 234 15 536 87 764 13 44 25 87 25 95 0 8 -103 118
-229 244 l-230 230 -26 -60 c-140 -310 -222 -661 -240 -1019 -6 -119 6 -377
21 -452 l6 -31 -233 -5 c-137 -2 -250 -9 -271 -16 -54 -17 -118 -70 -153 -126
l-30 -48 -2 -691 c-1 -382 3 -725 8 -766 50 -403 304 -707 689 -824 168 -51
254 -61 525 -60 195 0 271 4 345 18 261 48 488 165 630 324 55 62 55 62 85 47
68 -32 206 -85 300 -114 294 -93 539 -131 855 -131 288 0 543 38 820 122 110
34 119 35 205 27 98 -9 507 -46 950 -84 154 -14 384 -34 510 -45 311 -27 279
-31 271 38 -3 31 -13 138 -21 237 -8 99 -19 231 -25 294 -10 116 -20 224 -65
751 -48 547 -47 473 -4 616 82 272 119 524 119 809 0 506 -124 966 -378 1405
-184 317 -481 640 -787 856 -450 318 -972 492 -1525 508 -91 2 -212 1 -270 -4z
m1415 -1165 c94 -24 164 -65 236 -135 277 -273 178 -727 -191 -870 -77 -29
-216 -37 -296 -17 -105 27 -174 66 -249 142 -116 116 -162 236 -152 401 6 113
26 175 83 261 70 105 182 187 298 218 69 18 199 18 271 0z m-3805 -2925 c4
-522 9 -684 19 -715 33 -101 82 -158 166 -197 45 -21 65 -23 190 -23 136 0
142 1 200 30 72 37 116 91 147 183 22 66 23 72 26 735 l3 667 287 -2 287 -3 0
-645 c0 -689 -2 -718 -51 -862 -117 -344 -439 -504 -974 -485 -235 9 -370 40
-523 119 -159 83 -275 234 -329 433 -22 78 -22 96 -26 763 l-3 682 288 -2 288
-3 5 -675z"/>
<path d="M960 5415 c-151 -152 -277 -278 -280 -281 -4 -5 1390 -1404 1400
-1404 4 0 526 518 559 555 5 5 -1390 1405 -1399 1405 -3 0 -129 -124 -280
-275z"/>
</g>
</svg>
