<?xml version="1.0" encoding="UTF-8" standalone="no"?>
<!-- Generator: Fusion 360, Shaper Origin Export Add-In, Version 1.6.9  -->

<svg
   shaper:fusionaddin="version:1.6.9"
   width="9cm"
   height="9cm"
   version="1.1"
   x="0cm"
   y="0cm"
   viewBox="0 0 9 9"
   enable-background="new 0 0 9 9"
   xml:space="preserve"
   id="svg213"
   sodipodi:docname="NEW_LOGO_FULL_WHITE.svg"
   inkscape:version="1.2.1 (9c6d41e410, 2022-07-14)"
   xmlns:inkscape="http://www.inkscape.org/namespaces/inkscape"
   xmlns:sodipodi="http://sodipodi.sourceforge.net/DTD/sodipodi-0.dtd"
   xmlns="http://www.w3.org/2000/svg"
   xmlns:svg="http://www.w3.org/2000/svg"
   xmlns:shaper="http://www.shapertools.com/namespaces/shaper"><defs
     id="defs217" /><sodipodi:namedview
     id="namedview215"
     pagecolor="#ffffff"
     bordercolor="#000000"
     borderopacity="0.25"
     inkscape:showpageshadow="2"
     inkscape:pageopacity="0.0"
     inkscape:pagecheckerboard="0"
     inkscape:deskcolor="#d1d1d1"
     inkscape:document-units="cm"
     showgrid="false"
     inkscape:zoom="1.8230751"
     inkscape:cx="215.8441"
     inkscape:cy="154.6837"
     inkscape:window-width="1920"
     inkscape:window-height="1057"
     inkscape:window-x="1912"
     inkscape:window-y="-8"
     inkscape:window-maximized="1"
     inkscape:current-layer="svg213" /><path
     d="M-2.2069282,1.2876894 L-1.2876894,2.2069282 -3.5807612,4.5 -4.5,3.5807612 -2.2069282,1.2876894z"
     transform="matrix(1,0,0,-1,4.5,4.5)"
     stroke="rgb(100,100,100)"
     stroke-width="0.0010cm"
     stroke-linecap="round"
     stroke-linejoin="round"
     fill="none"
     shaper:cutDepth="0"
     id="path207"
     style="fill:#ffffff;stroke-width:0;stroke-dasharray:none;fill-opacity:1" /><path
     id="path211"
     style="fill:#ffffff;stroke-width:0;stroke-dasharray:none;fill-opacity:1"
     d="M 0.0032393392 4.5 A 4.5 4.5 0 0 1 -1.9393294 4.060647 L -1.1753967 3.2967143 A 3.5 3.5 0 0 0 1.9076709 2.9344108 A 1.175 1.175 0 0 1 0.63105632 1.4703141 A 1.6 1.6 0 1 1 1.4702816 0.63103719 A 1.175 1.175 0 0 1 2.9344299 1.9077035 A 3.5 3.5 0 1 0 -3.2967143 1.1753967 L -4.060647 1.9393294 A 4.5 4.5 0 0 1 1.5115194 -4.2385364 L 4.5000191 -4.5000191 L 4.2385364 -1.5115194 A 4.5 4.5 0 0 1 0.0032393392 4.5 z M 1.7677828 2.6177893 A 0.85 0.85 0 0 0 2.6177568 1.7677637 A 0.85 0.85 0 0 0 0.91775716 1.7677637 A 0.85 0.85 0 0 0 1.7677828 2.6177893 z "
     transform="matrix(1,0,0,-1,4.5,4.5)" /></svg>
